<?xml version="1.0" standalone="no"?>
<!DOCTYPE svg PUBLIC "-//W3C//DTD SVG 20010904//EN"
 "http://www.w3.org/TR/2001/REC-SVG-20010904/DTD/svg10.dtd">
<svg version="1.0" xmlns="http://www.w3.org/2000/svg"
 width="606.000000pt" height="606.000000pt" viewBox="0 0 606.000000 606.000000"
 preserveAspectRatio="xMidYMid meet">
<metadata>
Created by potrace 1.14, written by Peter Selinger 2001-2017
</metadata>
<g transform="translate(0.000000,606.000000) scale(0.100000,-0.100000)"
fill="#000000" stroke="none">
<path d="M0 5901 l0 -159 53 -43 c28 -24 54 -46 57 -49 5 -6 438 -375 555
-474 33 -28 62 -53 65 -56 3 -3 34 -30 70 -60 36 -30 83 -71 105 -90 22 -19
60 -51 84 -70 24 -19 60 -49 80 -66 20 -17 86 -73 146 -125 61 -52 119 -102
130 -112 11 -11 54 -47 95 -80 41 -34 120 -100 176 -147 55 -47 136 -113 180
-147 43 -33 118 -94 165 -135 180 -153 480 -400 642 -526 64 -50 87 -57 87
-28 0 26 145 296 216 402 41 61 74 116 74 122 0 6 -24 31 -52 55 -116 99 -203
172 -418 351 -124 103 -249 208 -279 234 -30 26 -89 74 -130 107 -71 55 -202
164 -331 275 -30 26 -141 119 -245 206 -195 163 -582 489 -799 672 l-121 102
-302 0 -303 0 0 -159z"/>
<path d="M4653 6041 c-10 -15 -237 -290 -395 -476 -112 -133 -546 -658 -588
-710 -30 -39 -80 -99 -111 -135 -79 -92 -414 -511 -474 -595 -343 -475 -506
-866 -522 -1250 -5 -124 -2 -157 22 -295 15 -85 30 -170 32 -187 4 -22 11 -33
22 -32 35 1 345 233 447 333 l71 71 7 116 c6 125 17 166 93 359 73 186 139
296 332 555 183 246 742 932 1229 1510 51 60 121 144 155 185 34 41 100 120
148 175 135 156 319 379 319 388 0 4 -174 7 -388 7 -373 0 -388 -1 -399 -19z"/>
<path d="M1363 3912 c0 -12 5 -22 9 -22 11 0 10 12 -2 30 -7 12 -9 10 -7 -8z"/>
<path d="M4630 3917 c0 -4 12 -26 27 -50 42 -66 111 -222 153 -343 115 -334
134 -706 53 -1054 -95 -412 -345 -807 -679 -1069 l-77 -62 -31 28 c-64 58
-366 378 -441 468 -27 33 -53 62 -56 65 -3 3 -36 43 -74 90 -37 47 -71 89 -76
94 -4 5 -37 -14 -76 -46 -37 -30 -142 -106 -233 -168 -91 -62 -169 -116 -173
-120 -15 -13 197 -269 465 -562 54 -59 98 -112 98 -117 0 -12 -12 -16 -140
-41 -238 -46 -536 -44 -756 5 -176 40 -453 138 -462 163 -2 6 16 25 40 42 24
17 79 57 123 89 44 32 199 145 345 251 146 106 321 234 390 283 296 214 391
290 509 408 141 142 250 316 297 474 26 86 26 307 0 390 -43 139 -155 307
-286 429 -50 45 -65 54 -76 45 -21 -17 -134 -230 -194 -366 -64 -143 -72 -189
-40 -233 34 -47 25 -118 -24 -198 -67 -107 -261 -278 -491 -433 -44 -29 -222
-157 -395 -283 -173 -126 -364 -265 -425 -309 -60 -44 -148 -109 -194 -145
-65 -50 -88 -62 -100 -55 -29 18 -170 197 -230 293 -164 260 -247 495 -287
802 -28 223 -4 536 57 738 29 94 102 281 126 323 7 12 -5 8 -21 -9 -11 -11
-16 -12 -16 -3 0 7 -7 5 -16 -7 -15 -19 -15 -19 -11 3 5 21 -19 41 -32 27 -3
-4 0 -9 7 -11 6 -3 12 -12 12 -21 -1 -15 -2 -15 -11 1 -14 24 -41 21 -64 -5
l-20 -23 -3 23 c-3 18 -10 22 -43 22 -28 0 -39 -4 -39 -15 0 -13 -24 -15 -160
-15 -136 0 -160 2 -160 15 0 11 -11 15 -40 15 -29 0 -40 -4 -40 -15 0 -12 -16
-15 -80 -15 -64 0 -80 3 -80 15 0 12 -16 15 -80 15 -79 0 -80 0 -80 -25 0 -25
-1 -25 -80 -25 -64 0 -80 -3 -80 -15 0 -11 -11 -15 -39 -15 -37 0 -40 2 -44
33 l-4 32 0 -35 c0 -47 -13 -109 -24 -116 -5 -3 -9 -18 -9 -33 0 -15 -8 -43
-18 -62 -16 -32 -17 -139 -20 -1756 l-2 -1723 3030 0 3030 0 0 1814 c0 997 -3
1835 -7 1862 -8 60 -21 36 -24 -46 -1 -53 -2 -51 -13 32 -12 88 -19 108 -31
89 -3 -6 -1 -11 4 -11 6 0 11 -7 11 -15 0 -10 -10 -15 -30 -15 -20 0 -30 5
-30 15 0 8 -4 15 -10 15 -5 0 -10 -7 -10 -15 0 -11 -11 -15 -40 -15 -29 0 -40
4 -40 15 0 11 -11 15 -40 15 -29 0 -40 -4 -40 -15 0 -11 -11 -15 -40 -15 -22
0 -40 -4 -40 -10 0 -5 -18 -10 -40 -10 -36 0 -40 3 -40 25 0 23 -4 25 -40 25
-36 0 -40 -2 -40 -25 l0 -25 -120 0 c-100 0 -120 -2 -120 -15 0 -13 -29 -15
-200 -15 -181 0 -200 -2 -200 -17 0 -15 -2 -14 -18 3 -11 11 -24 33 -29 49
l-10 30 -11 -35 c-6 -19 -11 -28 -11 -20 -1 9 -8 26 -17 39 -13 18 -18 20 -25
10 -5 -8 -9 -9 -10 -4 -4 46 -8 57 -26 72 -34 30 -59 89 -26 62 15 -13 15 -12
2 9 -8 12 -16 17 -17 12 -2 -6 -15 4 -28 21 -13 18 -24 30 -24 26z m145 -227
c3 -5 1 -10 -4 -10 -6 0 -11 5 -11 10 0 6 2 10 4 10 3 0 8 -4 11 -10z m24 -65
c0 -5 -4 -3 -9 5 -5 8 -9 22 -9 30 0 16 17 -16 18 -35z m-3568 8 c-12 -20 -14
-14 -5 12 4 9 9 14 11 11 3 -2 0 -13 -6 -23z"/>
<path d="M1301 3844 c0 -11 3 -14 6 -6 3 7 2 16 -1 19 -3 4 -6 -2 -5 -13z"/>
<path d="M1260 3814 c0 -15 22 -44 30 -39 6 4 5 14 -3 25 -11 19 -27 27 -27
14z"/>
<path d="M1311 3784 c0 -11 3 -14 6 -6 3 7 2 16 -1 19 -3 4 -6 -2 -5 -13z"/>
<path d="M4780 3729 c0 -5 5 -7 10 -4 6 3 10 8 10 11 0 2 -4 4 -10 4 -5 0 -10
-5 -10 -11z"/>
</g>
</svg>
